<svg width="1589" height="710" viewBox="0 0 1589 710" fill="none" xmlns="http://www.w3.org/2000/svg">
<rect x="0.5" y="0.5" width="1588" height="709" rx="72.5" fill="black" stroke="white"/>
<rect x="61.5" y="68.5" width="696" height="573" rx="32.5" fill="black" stroke="white"/>
<circle cx="1220" cy="355" r="217" fill="#E6E6E6"/>
<circle cx="1220.5" cy="354.5" r="82.5" fill="#C9C9C9"/>
<path d="M1228 506.5L1183.75 532.048V480.952L1228 506.5Z" fill="#C9C9C9"/>
<path d="M1047 354.5L1091.25 328.952V380.048L1047 354.5Z" fill="#C9C9C9"/>
<rect x="1246" y="477" width="12" height="59" fill="#C9C9C9"/>
<rect x="1035" y="325" width="12" height="59" fill="#C9C9C9"/>
<path d="M1387 354.5L1342.75 380.048V328.952L1387 354.5Z" fill="#C9C9C9"/>
<rect x="1387" y="325" width="12" height="59" fill="#C9C9C9"/>
<rect x="1228" y="477" width="12" height="59" fill="#C9C9C9"/>
<path d="M1158.81 191.909H1163.01L1172.9 216.057H1173.24L1183.13 191.909H1187.33V221H1184.04V198.898H1183.75L1174.66 221H1171.48L1162.39 198.898H1162.1V221H1158.81V191.909ZM1213.48 191.909H1217.01V211.17C1217.01 213.159 1216.54 214.935 1215.6 216.497C1214.67 218.05 1213.36 219.277 1211.67 220.176C1209.97 221.066 1207.98 221.511 1205.7 221.511C1203.42 221.511 1201.43 221.066 1199.73 220.176C1198.04 219.277 1196.72 218.05 1195.79 216.497C1194.86 214.935 1194.39 213.159 1194.39 211.17V191.909H1197.92V210.886C1197.92 212.307 1198.23 213.571 1198.85 214.679C1199.48 215.777 1200.37 216.644 1201.52 217.278C1202.69 217.903 1204.08 218.216 1205.7 218.216C1207.32 218.216 1208.71 217.903 1209.88 217.278C1211.04 216.644 1211.93 215.777 1212.55 214.679C1213.17 213.571 1213.48 212.307 1213.48 210.886V191.909ZM1239.95 199.182C1239.78 197.742 1239.09 196.625 1237.88 195.83C1236.67 195.034 1235.18 194.636 1233.42 194.636C1232.13 194.636 1231 194.845 1230.04 195.261C1229.08 195.678 1228.33 196.251 1227.79 196.98C1227.26 197.709 1227 198.538 1227 199.466C1227 200.242 1227.18 200.91 1227.55 201.469C1227.93 202.018 1228.41 202.477 1229 202.847C1229.59 203.206 1230.2 203.505 1230.85 203.741C1231.49 203.969 1232.08 204.153 1232.62 204.295L1235.58 205.091C1236.33 205.29 1237.18 205.564 1238.1 205.915C1239.04 206.265 1239.94 206.743 1240.79 207.349C1241.65 207.946 1242.36 208.713 1242.92 209.651C1243.48 210.588 1243.76 211.739 1243.76 213.102C1243.76 214.674 1243.35 216.095 1242.52 217.364C1241.71 218.633 1240.51 219.641 1238.94 220.389C1237.38 221.137 1235.48 221.511 1233.25 221.511C1231.16 221.511 1229.36 221.175 1227.83 220.503C1226.32 219.83 1225.13 218.893 1224.26 217.69C1223.39 216.488 1222.91 215.091 1222.79 213.5H1226.43C1226.52 214.598 1226.89 215.508 1227.54 216.227C1228.19 216.937 1229.01 217.468 1230.01 217.818C1231.01 218.159 1232.09 218.33 1233.25 218.33C1234.59 218.33 1235.8 218.112 1236.87 217.676C1237.94 217.231 1238.79 216.616 1239.41 215.83C1240.04 215.034 1240.35 214.106 1240.35 213.045C1240.35 212.08 1240.08 211.294 1239.54 210.688C1239 210.081 1238.29 209.589 1237.41 209.21C1236.53 208.831 1235.58 208.5 1234.55 208.216L1230.97 207.193C1228.7 206.54 1226.9 205.607 1225.58 204.395C1224.25 203.183 1223.59 201.597 1223.59 199.636C1223.59 198.008 1224.03 196.587 1224.91 195.375C1225.8 194.153 1226.99 193.206 1228.49 192.534C1229.99 191.852 1231.67 191.511 1233.53 191.511C1235.41 191.511 1237.07 191.848 1238.53 192.52C1239.99 193.183 1241.14 194.092 1242 195.247C1242.86 196.402 1243.31 197.714 1243.36 199.182H1239.95ZM1253.07 191.909V221H1249.55V191.909H1253.07ZM1283.55 201H1280.02C1279.81 199.987 1279.45 199.097 1278.93 198.33C1278.42 197.562 1277.79 196.919 1277.05 196.398C1276.32 195.867 1275.51 195.47 1274.62 195.205C1273.73 194.939 1272.81 194.807 1271.84 194.807C1270.08 194.807 1268.48 195.252 1267.05 196.142C1265.63 197.032 1264.5 198.344 1263.66 200.077C1262.83 201.81 1262.41 203.936 1262.41 206.455C1262.41 208.973 1262.83 211.099 1263.66 212.832C1264.5 214.565 1265.63 215.877 1267.05 216.767C1268.48 217.657 1270.08 218.102 1271.84 218.102C1272.81 218.102 1273.73 217.97 1274.62 217.705C1275.51 217.439 1276.32 217.046 1277.05 216.526C1277.79 215.995 1278.42 215.347 1278.93 214.58C1279.45 213.803 1279.81 212.913 1280.02 211.909H1283.55C1283.28 213.396 1282.8 214.726 1282.1 215.901C1281.4 217.075 1280.52 218.074 1279.48 218.898C1278.44 219.712 1277.27 220.332 1275.97 220.759C1274.69 221.185 1273.31 221.398 1271.84 221.398C1269.36 221.398 1267.15 220.792 1265.22 219.58C1263.29 218.367 1261.77 216.644 1260.66 214.409C1259.55 212.174 1259 209.523 1259 206.455C1259 203.386 1259.55 200.735 1260.66 198.5C1261.77 196.265 1263.29 194.542 1265.22 193.33C1267.15 192.117 1269.36 191.511 1271.84 191.511C1273.31 191.511 1274.69 191.724 1275.97 192.151C1277.27 192.577 1278.44 193.202 1279.48 194.026C1280.52 194.84 1281.4 195.834 1282.1 197.009C1282.8 198.173 1283.28 199.504 1283.55 201Z" fill="#C9C9C9"/>
</svg>
