<svg width="56" height="64" viewBox="0 0 56 64" fill="none" xmlns="http://www.w3.org/2000/svg">
<path d="M0.466813 1.428H21.5988V19.068H0.466813V1.428ZM16.8468 5.28H5.21881V15.252H16.8468V5.28ZM44.096 0.815998C45.56 0.815998 46.928 1.056 48.2 1.536C49.472 1.992 50.6 2.64 51.584 3.48C52.568 4.32 53.336 5.316 53.888 6.468C54.44 7.62 54.716 8.868 54.716 10.212C54.716 11.58 54.44 12.84 53.888 13.992C53.336 15.144 52.568 16.152 51.584 17.016C50.6 17.88 49.472 18.552 48.2 19.032C46.928 19.488 45.56 19.716 44.096 19.716C42.632 19.716 41.252 19.488 39.956 19.032C38.684 18.552 37.556 17.88 36.572 17.016C35.588 16.152 34.82 15.144 34.268 13.992C33.74 12.84 33.476 11.58 33.476 10.212C33.476 8.868 33.74 7.62 34.268 6.468C34.82 5.316 35.588 4.32 36.572 3.48C37.556 2.64 38.684 1.992 39.956 1.536C41.252 1.056 42.632 0.815998 44.096 0.815998ZM44.096 4.884C42.968 4.884 41.948 5.112 41.036 5.568C40.124 6 39.392 6.612 38.84 7.404C38.312 8.196 38.048 9.132 38.048 10.212C38.048 11.316 38.312 12.276 38.84 13.092C39.392 13.908 40.124 14.544 41.036 15C41.948 15.432 42.968 15.648 44.096 15.648C45.224 15.648 46.244 15.432 47.156 15C48.068 14.544 48.788 13.908 49.316 13.092C49.868 12.276 50.144 11.316 50.144 10.212C50.144 9.132 49.868 8.196 49.316 7.404C48.788 6.612 48.068 6 47.156 5.568C46.244 5.112 45.224 4.884 44.096 4.884ZM0.970813 44.924H21.8148V63.608H17.0268V48.704H0.970813V44.924ZM18.3228 52.952V56.624L0.610813 57.812L0.0708128 53.708L18.3228 52.952ZM33.332 45.212H55.004V48.992H33.332V45.212ZM32.864 59.792H55.472V63.644H32.864V59.792ZM36.572 48.272H41.324V61.304H36.572V48.272ZM47.012 48.272H51.764V61.304H47.012V48.272Z" fill="black"/>
</svg>
